<?xml version="1.0" encoding="utf-8"?>
<!-- Generator: Adobe Illustrator 22.1.0, SVG Export Plug-In . SVG Version: 6.00 Build 0)  -->
<svg version="1.1" id="Livello_1" xmlns="http://www.w3.org/2000/svg" xmlns:xlink="http://www.w3.org/1999/xlink" x="0px" y="0px"
	 viewBox="0 0 854.6 826.1" style="enable-background:new 0 0 854.6 826.1;" xml:space="preserve">
<path d="M619.9,323.3c27.1-2.1,50.6-22.8,68.3-41.3c24.1-25.1,34.5-40,47.8-72.4c11.9-29.2,17.6-64.4,2-94.5
	c-15.4-29.6-47.4-49.4-77-61.5c-10-4.1-20.5-7.5-31.3-9.8l-0.8-0.8l-0.5,0.5c-23.6-4.9-48.2-5.1-70.1,2.6
	c-33,11.6-54.5,41.5-56.9,76.9c-2.6,37.4,15.2,75.2,28.7,109.6c4.5,11.5,8.9,23.1,12.7,34.8C552.7,298.1,581.2,326.3,619.9,323.3z"
	/>
<path d="M388.3,66.4c18.5,22,21.1,58.6,28.3,88.8c7.2,30.3,18.9,54.1,22.5,81.7c3.5,27.5-1.1,58.8-18.1,80.4
	C404,339,374.7,351,344.4,360c-30.3,9-61.6,15-94.8,12.3c-33.2-2.8-68.3-14.4-90.7-38.1s-32.3-59.6-41.3-97.9
	c-9.1-38.2-17.4-78.9-1.4-106.3c16-27.3,56.2-41.3,91.1-55.8s64.3-29.3,96.3-33.2C335.4,37.2,369.8,44.5,388.3,66.4z"/>
<path d="M188,248.9c19.6-67.9,223.1-95,289.7-69.6s10.9,127.2,33.9,185.3c23,58.1,61.8,176.9-42.4,184.1
	C365.1,556,138,421.9,188,248.9z"/>
</svg>
